CrispyCond Thin-MaxGrade-shadow.ufo
<glyph name="exclam" format="2">
  <advance width="-98"/>
  <unicode hex="0021"/>
  <outline>
    <contour>
      <point x="49" y="6" type="line"/>
      <point x="49" y="23" type="line"/>
      <point x="31" y="23" type="line"/>
      <point x="45" y="37" type="line"/>
      <point x="47" y="77" type="line"/>
      <point x="47" y="77" type="line"/>
      <point x="47" y="77" type="line"/>
      <point x="47" y="1602" type="line"/>
      <point x="29" y="1602" type="line"/>
      <point x="-122" y="1451" type="line"/>
      <point x="-124" y="1431" type="line"/>
      <point x="-124" y="-114" type="line"/>
      <point x="-106" y="-114" type="line"/>
      <point x="24" y="17" type="line"/>
      <point x="24" y="15" type="line"/>
      <point x="24" y="-2" type="line"/>
      <point x="46" y="-2" type="line"/>
    </contour>
    <contour>
      <point x="-120" y="-110" type="line"/>
      <point x="-120" y="1431" type="line"/>
      <point x="-118" y="1449" type="line"/>
      <point x="31" y="1598" type="line"/>
      <point x="43" y="1598" type="line"/>
      <point x="43" y="77" type="line"/>
      <point x="41" y="39" type="line"/>
      <point x="-108" y="-110" type="line"/>
    </contour>
    <contour>
      <point x="28" y="2" type="line"/>
      <point x="28" y="15" type="line"/>
      <point x="29" y="19" type="line"/>
      <point x="45" y="19" type="line"/>
      <point x="45" y="6" type="line"/>
      <point x="44" y="2" type="line"/>
    </contour>
    <component base="period"/>
    <component base="period"/>
    <component base="period"/>
    <component base="period"/>
  </outline>
</glyph>
<glyph name="comma" format="2">
  <advance width="-14"/>
  <unicode hex="002C"/>
  <outline>
    <contour>
      <point x="129" y="19" type="line"/>
      <point x="111" y="19" type="line"/>
      <point x="-40" y="-132" type="line"/>
      <point x="-41" y="-140" type="line"/>
      <point x="-41" y="-152" type="line"/>
      <point x="-33" y="-152" type="line"/>
      <point x="-33" y="-293" type="line"/>
      <point x="-26" y="-293" type="line"/>
      <point x="125" y="-142" type="line"/>
      <point x="125" y="-141" type="line"/>
      <point x="125" y="-140" type="line"/>
      <point x="129" y="0" type="line"/>
      <point x="129" y="0" type="line"/>
      <point x="129" y="0" type="line"/>
    </contour>
    <contour>
      <point x="-29" y="-148" type="line"/>
      <point x="-37" y="-148" type="line"/>
      <point x="-37" y="-140" type="line"/>
      <point x="-36" y="-134" type="line"/>
      <point x="113" y="15" type="line"/>
      <point x="125" y="15" type="line"/>
      <point x="125" y="0" type="line"/>
      <point x="121" y="-140" type="line"/>
      <point x="-28" y="-289" type="line"/>
      <point x="-29" y="-289" type="line"/>
    </contour>
  </outline>
</glyph>
<glyph name="zero" format="2">
  <advance width="24"/>
  <unicode hex="0030"/>
  <outline>
    <contour>
      <point x="162" y="1602" type="line"/>
      <point x="33" y="1602" type="line"/>
      <point x="-118" y="1451" type="line"/>
      <point x="-118" y="-152" type="line"/>
      <point x="11" y="-152" type="line"/>
      <point x="162" y="-1" type="line"/>
    </contour>
    <contour>
      <point x="-114" y="-148" type="line"/>
      <point x="-114" y="1449" type="line"/>
      <point x="35" y="1598" type="line"/>
      <point x="158" y="1598" type="line"/>
      <point x="158" y="1" type="line"/>
      <point x="9" y="-148" type="line"/>
    </contour>
  </outline>
</glyph>
<glyph name="two" format="2">
  <advance width="10"/>
  <unicode hex="0032"/>
  <outline>
    <contour>
      <point x="4" y="-152" type="line"/>
      <point x="155" y="-1" type="line"/>
      <point x="155" y="348" type="line"/>
      <point x="136" y="348" type="line"/>
      <point x="46" y="258" type="line"/>
      <point x="46" y="669" type="line"/>
      <point x="148" y="771" type="line"/>
      <point x="148" y="1602" type="line"/>
      <point x="29" y="1602" type="line"/>
      <point x="-122" y="1451" type="line"/>
      <point x="-122" y="1014" type="line"/>
      <point x="-103" y="1014" type="line"/>
      <point x="-22" y="1095" type="line"/>
      <point x="-22" y="741" type="line"/>
      <point x="-125" y="638" type="line"/>
      <point x="-125" y="-152" type="line"/>
    </contour>
    <contour>
      <point x="-18" y="739" type="line"/>
      <point x="-18" y="1105" type="line"/>
      <point x="-105" y="1018" type="line"/>
      <point x="-118" y="1018" type="line"/>
      <point x="-118" y="1449" type="line"/>
      <point x="31" y="1598" type="line"/>
      <point x="144" y="1598" type="line"/>
      <point x="144" y="773" type="line"/>
      <point x="42" y="671" type="line"/>
      <point x="42" y="248" type="line"/>
      <point x="138" y="344" type="line"/>
      <point x="151" y="344" type="line"/>
      <point x="151" y="1" type="line"/>
      <point x="2" y="-148" type="line"/>
      <point x="-121" y="-148" type="line"/>
      <point x="-121" y="636" type="line"/>
    </contour>
  </outline>
</glyph>
<glyph name="three" format="2">
  <advance width="8"/>
  <unicode hex="0033"/>
  <outline>
    <contour>
      <point x="0" y="-152" type="line"/>
      <point x="151" y="-1" type="line"/>
      <point x="151" y="817" type="line"/>
      <point x="139" y="817" type="line"/>
      <point x="139" y="1602" type="line"/>
      <point x="33" y="1602" type="line"/>
      <point x="-118" y="1451" type="line"/>
      <point x="-118" y="1004" type="line"/>
      <point x="-99" y="1004" type="line"/>
      <point x="-32" y="1071" type="line"/>
      <point x="-32" y="746" type="line"/>
      <point x="-112" y="666" type="line"/>
      <point x="-112" y="648" type="line"/>
      <point x="-19" y="648" type="line"/>
      <point x="-19" y="306" type="line"/>
      <point x="-125" y="200" type="line"/>
      <point x="-125" y="-152" type="line"/>
    </contour>
    <contour>
      <point x="-15" y="304" type="line"/>
      <point x="-15" y="652" type="line"/>
      <point x="-108" y="652" type="line"/>
      <point x="-108" y="664" type="line"/>
      <point x="-28" y="744" type="line"/>
      <point x="-28" y="1081" type="line"/>
      <point x="-101" y="1008" type="line"/>
      <point x="-114" y="1008" type="line"/>
      <point x="-114" y="1449" type="line"/>
      <point x="35" y="1598" type="line"/>
      <point x="135" y="1598" type="line"/>
      <point x="135" y="813" type="line"/>
      <point x="147" y="813" type="line"/>
      <point x="147" y="1" type="line"/>
      <point x="-2" y="-148" type="line"/>
      <point x="-121" y="-148" type="line"/>
      <point x="-121" y="198" type="line"/>
    </contour>
  </outline>
</glyph>
<glyph name="four" format="2">
  <advance width="21"/>
  <unicode hex="0034"/>
  <outline>
    <contour>
      <point x="-14" y="-152" type="line"/>
      <point x="137" y="-1" type="line"/>
      <point x="137" y="774" type="line"/>
      <point x="166" y="803" type="line"/>
      <point x="166" y="822" type="line"/>
      <point x="137" y="822" type="line"/>
      <point x="137" y="1602" type="line"/>
      <point x="117" y="1602" type="line"/>
      <point x="45" y="1530" type="line"/>
      <point x="45" y="1602" type="line"/>
      <point x="26" y="1602" type="line"/>
      <point x="-125" y="1451" type="line"/>
      <point x="-125" y="652" type="line"/>
      <point x="-34" y="652" type="line"/>
      <point x="-34" y="-152" type="line"/>
    </contour>
    <contour>
      <point x="-30" y="656" type="line"/>
      <point x="-121" y="656" type="line"/>
      <point x="-121" y="1449" type="line"/>
      <point x="28" y="1598" type="line"/>
      <point x="41" y="1598" type="line"/>
      <point x="41" y="1520" type="line"/>
      <point x="119" y="1598" type="line"/>
      <point x="133" y="1598" type="line"/>
      <point x="133" y="818" type="line"/>
      <point x="162" y="818" type="line"/>
      <point x="162" y="805" type="line"/>
      <point x="133" y="776" type="line"/>
      <point x="133" y="1" type="line"/>
      <point x="-16" y="-148" type="line"/>
      <point x="-30" y="-148" type="line"/>
    </contour>
  </outline>
</glyph>
<glyph name="A" format="2">
  <advance width="19"/>
  <unicode hex="0041"/>
  <outline>
    <contour>
      <point x="6" y="-152" type="line"/>
      <point x="157" y="-1" type="line"/>
      <point x="157" y="1602" type="line"/>
      <point x="65" y="1602" type="line"/>
      <point x="-86" y="1451" type="line"/>
      <point x="-123" y="1274" type="line"/>
      <point x="-123" y="-152" type="line"/>
      <point x="-104" y="-152" type="line"/>
      <point x="-14" y="-62" type="line"/>
      <point x="-14" y="-152" type="line"/>
    </contour>
    <contour>
      <point x="-10" y="-52" type="line"/>
      <point x="-106" y="-148" type="line"/>
      <point x="-119" y="-148" type="line"/>
      <point x="-119" y="1274" type="line"/>
      <point x="-82" y="1449" type="line"/>
      <point x="67" y="1598" type="line"/>
      <point x="153" y="1598" type="line"/>
      <point x="153" y="1" type="line"/>
      <point x="4" y="-148" type="line"/>
      <point x="-10" y="-148" type="line"/>
    </contour>
  </outline>
</glyph>
<glyph name="D" format="2">
  <advance width="19"/>
  <unicode hex="0044"/>
  <outline>
    <contour>
      <point x="162" y="173" type="line"/>
      <point x="162" y="1602" type="line"/>
      <point x="33" y="1602" type="line"/>
      <point x="-118" y="1451" type="line"/>
      <point x="-118" y="-152" type="line"/>
      <point x="-25" y="-152" type="line"/>
      <point x="126" y="-1" type="line"/>
    </contour>
    <contour>
      <point x="-114" y="-148" type="line"/>
      <point x="-114" y="1449" type="line"/>
      <point x="35" y="1598" type="line"/>
      <point x="158" y="1598" type="line"/>
      <point x="158" y="173" type="line"/>
      <point x="122" y="1" type="line"/>
      <point x="-27" y="-148" type="line"/>
    </contour>
  </outline>
</glyph>
<glyph name="E" format="2">
  <advance width="5"/>
  <unicode hex="0045"/>
  <outline>
    <contour>
      <point x="-1" y="-152" type="line"/>
      <point x="150" y="-1" type="line"/>
      <point x="150" y="447" type="line"/>
      <point x="133" y="447" type="line"/>
      <point x="53" y="367" type="line"/>
      <point x="53" y="704" type="line"/>
      <point x="140" y="791" type="line"/>
      <point x="140" y="810" type="line"/>
      <point x="53" y="810" type="line"/>
      <point x="53" y="1058" type="line"/>
      <point x="149" y="1154" type="line"/>
      <point x="149" y="1602" type="line"/>
      <point x="33" y="1602" type="line"/>
      <point x="-118" y="1451" type="line"/>
      <point x="-118" y="-152" type="line"/>
    </contour>
    <contour>
      <point x="49" y="1060" type="line"/>
      <point x="49" y="806" type="line"/>
      <point x="136" y="806" type="line"/>
      <point x="136" y="793" type="line"/>
      <point x="49" y="706" type="line"/>
      <point x="49" y="357" type="line"/>
      <point x="135" y="443" type="line"/>
      <point x="146" y="443" type="line"/>
      <point x="146" y="1" type="line"/>
      <point x="-3" y="-148" type="line"/>
      <point x="-114" y="-148" type="line"/>
      <point x="-114" y="1449" type="line"/>
      <point x="35" y="1598" type="line"/>
      <point x="145" y="1598" type="line"/>
      <point x="145" y="1156" type="line"/>
    </contour>
  </outline>
</glyph>
<glyph name="G" format="2">
  <advance width="11"/>
  <unicode hex="0047"/>
  <outline>
    <contour>
      <point x="4" y="-152" type="line"/>
      <point x="155" y="-1" type="line"/>
      <point x="155" y="807" type="line"/>
      <point x="82" y="807" type="line"/>
      <point x="47" y="772" type="line"/>
      <point x="47" y="1043" type="line"/>
      <point x="157" y="1153" type="line"/>
      <point x="157" y="1602" type="line"/>
      <point x="64" y="1602" type="line"/>
      <point x="-87" y="1451" type="line"/>
      <point x="-123" y="1276" type="line"/>
      <point x="-123" y="-152" type="line"/>
    </contour>
    <contour>
      <point x="43" y="1045" type="line"/>
      <point x="43" y="762" type="line"/>
      <point x="84" y="803" type="line"/>
      <point x="151" y="803" type="line"/>
      <point x="151" y="1" type="line"/>
      <point x="2" y="-148" type="line"/>
      <point x="-119" y="-148" type="line"/>
      <point x="-119" y="1276" type="line"/>
      <point x="-83" y="1449" type="line"/>
      <point x="66" y="1598" type="line"/>
      <point x="153" y="1598" type="line"/>
      <point x="153" y="1155" type="line"/>
    </contour>
  </outline>
</glyph>
<glyph name="H" format="2">
  <advance width="21"/>
  <unicode hex="0048"/>
  <outline>
    <contour>
      <point x="8" y="-152" type="line"/>
      <point x="159" y="-1" type="line"/>
      <point x="159" y="1602" type="line"/>
      <point x="140" y="1602" type="line"/>
      <point x="53" y="1515" type="line"/>
      <point x="53" y="1602" type="line"/>
      <point x="33" y="1602" type="line"/>
      <point x="-118" y="1451" type="line"/>
      <point x="-118" y="-152" type="line"/>
      <point x="-98" y="-152" type="line"/>
      <point x="-11" y="-65" type="line"/>
      <point x="-11" y="-152" type="line"/>
    </contour>
    <contour>
      <point x="49" y="1505" type="line"/>
      <point x="142" y="1598" type="line"/>
      <point x="155" y="1598" type="line"/>
      <point x="155" y="1" type="line"/>
      <point x="6" y="-148" type="line"/>
      <point x="-7" y="-148" type="line"/>
      <point x="-7" y="-55" type="line"/>
      <point x="-100" y="-148" type="line"/>
      <point x="-114" y="-148" type="line"/>
      <point x="-114" y="1449" type="line"/>
      <point x="35" y="1598" type="line"/>
      <point x="49" y="1598" type="line"/>
    </contour>
  </outline>
</glyph>
<glyph name="I" format="2">
  <advance width="3"/>
  <unicode hex="0049"/>
  <outline>
    <contour>
      <point x="148" y="-1" type="line"/>
      <point x="148" y="17" type="line"/>
      <point x="97" y="17" type="line"/>
      <point x="97" y="1533" type="line"/>
      <point x="148" y="1584" type="line"/>
      <point x="148" y="1602" type="line"/>
      <point x="26" y="1602" type="line"/>
      <point x="-125" y="1451" type="line"/>
      <point x="-125" y="1433" type="line"/>
      <point x="-74" y="1433" type="line"/>
      <point x="-74" y="-83" type="line"/>
      <point x="-125" y="-134" type="line"/>
      <point x="-125" y="-152" type="line"/>
      <point x="-3" y="-152" type="line"/>
    </contour>
    <contour>
      <point x="93" y="1535" type="line"/>
      <point x="93" y="13" type="line"/>
      <point x="144" y="13" type="line"/>
      <point x="144" y="1" type="line"/>
      <point x="-5" y="-148" type="line"/>
      <point x="-121" y="-148" type="line"/>
      <point x="-121" y="-136" type="line"/>
      <point x="-70" y="-85" type="line"/>
      <point x="-70" y="1437" type="line"/>
      <point x="-121" y="1437" type="line"/>
      <point x="-121" y="1449" type="line"/>
      <point x="28" y="1598" type="line"/>
      <point x="144" y="1598" type="line"/>
      <point x="144" y="1586" type="line"/>
    </contour>
  </outline>
</glyph>
<glyph name="J" format="2">
  <advance width="-6"/>
  <unicode hex="004A"/>
  <outline>
    <contour>
      <point x="-19" y="-152" type="line"/>
      <point x="132" y="-1" type="line"/>
      <point x="132" y="1602" type="line"/>
      <point x="112" y="1602" type="line"/>
      <point x="-39" y="1451" type="line"/>
      <point x="-39" y="515" type="line"/>
      <point x="-125" y="429" type="line"/>
      <point x="-125" y="-152" type="line"/>
    </contour>
    <contour>
      <point x="-35" y="513" type="line"/>
      <point x="-35" y="1449" type="line"/>
      <point x="114" y="1598" type="line"/>
      <point x="128" y="1598" type="line"/>
      <point x="128" y="1" type="line"/>
      <point x="-21" y="-148" type="line"/>
      <point x="-121" y="-148" type="line"/>
      <point x="-121" y="427" type="line"/>
    </contour>
  </outline>
</glyph>
<glyph name="M" format="2">
  <advance width="104"/>
  <unicode hex="004D"/>
  <outline>
    <contour>
      <point x="54" y="2" type="line"/>
      <point x="36" y="2" type="line"/>
      <point x="36" y="148" type="line"/>
      <point x="74" y="186" type="line"/>
      <point x="74" y="-152" type="line"/>
      <point x="91" y="-152" type="line"/>
      <point x="245" y="2" type="line"/>
      <point x="228" y="2" type="line"/>
      <point x="228" y="1587" type="line"/>
      <point x="209" y="1587" type="line"/>
      <point x="198" y="1576" type="line"/>
      <point x="199" y="1605" type="line"/>
      <point x="70" y="1476" type="line"/>
      <point x="66" y="1587" type="line"/>
      <point x="48" y="1587" type="line"/>
      <point x="36" y="1575" type="line"/>
      <point x="36" y="1605" type="line"/>
      <point x="-118" y="1451" type="line"/>
      <point x="-118" y="-152" type="line"/>
      <point x="-100" y="-152" type="line"/>
    </contour>
    <contour>
      <point x="32" y="150" type="line"/>
      <point x="32" y="-2" type="line"/>
      <point x="44" y="-2" type="line"/>
      <point x="-102" y="-148" type="line"/>
      <point x="-114" y="-148" type="line"/>
      <point x="-114" y="1449" type="line"/>
      <point x="32" y="1595" type="line"/>
      <point x="32" y="1565" type="line"/>
      <point x="50" y="1583" type="line"/>
      <point x="62" y="1583" type="line"/>
      <point x="66" y="1466" type="line"/>
      <point x="195" y="1595" type="line"/>
      <point x="194" y="1566" type="line"/>
      <point x="211" y="1583" type="line"/>
      <point x="224" y="1583" type="line"/>
      <point x="224" y="-2" type="line"/>
      <point x="235" y="-2" type="line"/>
      <point x="89" y="-148" type="line"/>
      <point x="78" y="-148" type="line"/>
      <point x="78" y="196" type="line"/>
    </contour>
  </outline>
</glyph>
<glyph name="O" format="2">
  <advance width="13"/>
  <unicode hex="004F"/>
  <outline>
    <contour>
      <point x="157" y="173" type="line"/>
      <point x="157" y="1602" type="line"/>
      <point x="64" y="1602" type="line"/>
      <point x="-87" y="1451" type="line"/>
      <point x="-123" y="1277" type="line"/>
      <point x="-123" y="-152" type="line"/>
      <point x="-31" y="-152" type="line"/>
      <point x="120" y="-1" type="line"/>
    </contour>
    <contour>
      <point x="-119" y="-148" type="line"/>
      <point x="-119" y="1277" type="line"/>
      <point x="-83" y="1449" type="line"/>
      <point x="66" y="1598" type="line"/>
      <point x="153" y="1598" type="line"/>
      <point x="153" y="173" type="line"/>
      <point x="116" y="1" type="line"/>
      <point x="-33" y="-148" type="line"/>
    </contour>
  </outline>
</glyph>
<glyph name="P" format="2">
  <advance width="11"/>
  <unicode hex="0050"/>
  <outline>
    <contour>
      <point x="-98" y="-152" type="line"/>
      <point x="53" y="-1" type="line"/>
      <point x="53" y="639" type="line"/>
      <point x="156" y="742" type="line"/>
      <point x="156" y="1602" type="line"/>
      <point x="33" y="1602" type="line"/>
      <point x="-118" y="1451" type="line"/>
      <point x="-118" y="-152" type="line"/>
    </contour>
    <contour>
      <point x="49" y="641" type="line"/>
      <point x="49" y="1" type="line"/>
      <point x="-100" y="-148" type="line"/>
      <point x="-114" y="-148" type="line"/>
      <point x="-114" y="1449" type="line"/>
      <point x="35" y="1598" type="line"/>
      <point x="152" y="1598" type="line"/>
      <point x="152" y="744" type="line"/>
    </contour>
  </outline>
</glyph>
<glyph name="R" format="2">
  <advance width="13"/>
  <unicode hex="0052"/>
  <outline>
    <contour>
      <point x="-4" y="-152" type="line"/>
      <point x="147" y="-1" type="line"/>
      <point x="147" y="690" type="line"/>
      <point x="120" y="754" type="line"/>
      <point x="156" y="789" type="line"/>
      <point x="156" y="1602" type="line"/>
      <point x="33" y="1602" type="line"/>
      <point x="-118" y="1451" type="line"/>
      <point x="-118" y="-152" type="line"/>
      <point x="-98" y="-152" type="line"/>
      <point x="-24" y="-78" type="line"/>
      <point x="-24" y="-152" type="line"/>
    </contour>
    <contour>
      <point x="116" y="754" type="line"/>
      <point x="143" y="690" type="line"/>
      <point x="143" y="1" type="line"/>
      <point x="-6" y="-148" type="line"/>
      <point x="-20" y="-148" type="line"/>
      <point x="-20" y="-68" type="line"/>
      <point x="-100" y="-148" type="line"/>
      <point x="-114" y="-148" type="line"/>
      <point x="-114" y="1449" type="line"/>
      <point x="35" y="1598" type="line"/>
      <point x="152" y="1598" type="line"/>
      <point x="152" y="791" type="line"/>
    </contour>
  </outline>
</glyph>
<glyph name="S" format="2">
  <advance width="7"/>
  <unicode hex="0053"/>
  <outline>
    <contour>
      <point x="-34" y="-152" type="line"/>
      <point x="117" y="-1" type="line"/>
      <point x="153" y="164" type="line"/>
      <point x="153" y="811" type="line"/>
      <point x="45" y="811" type="line"/>
      <point x="45" y="1051" type="line"/>
      <point x="148" y="1154" type="line"/>
      <point x="148" y="1602" type="line"/>
      <point x="62" y="1602" type="line"/>
      <point x="-89" y="1451" type="line"/>
      <point x="-125" y="1277" type="line"/>
      <point x="-125" y="640" type="line"/>
      <point x="-18" y="640" type="line"/>
      <point x="-18" y="309" type="line"/>
      <point x="-123" y="204" type="line"/>
      <point x="-123" y="-152" type="line"/>
    </contour>
    <contour>
      <point x="-14" y="307" type="line"/>
      <point x="-14" y="644" type="line"/>
      <point x="-121" y="644" type="line"/>
      <point x="-121" y="1277" type="line"/>
      <point x="-85" y="1449" type="line"/>
      <point x="64" y="1598" type="line"/>
      <point x="144" y="1598" type="line"/>
      <point x="144" y="1156" type="line"/>
      <point x="41" y="1053" type="line"/>
      <point x="41" y="807" type="line"/>
      <point x="149" y="807" type="line"/>
      <point x="149" y="164" type="line"/>
      <point x="113" y="1" type="line"/>
      <point x="-36" y="-148" type="line"/>
      <point x="-119" y="-148" type="line"/>
      <point x="-119" y="202" type="line"/>
    </contour>
  </outline>
</glyph>
<glyph name="V" format="2">
  <advance width="17"/>
  <unicode hex="0056"/>
  <outline>
    <contour>
      <point x="127" y="2" type="line"/>
      <point x="98" y="2" type="line"/>
      <point x="110" y="14" type="line"/>
      <point x="110" y="15" type="line"/>
      <point x="110" y="16" type="line"/>
      <point x="138" y="151" type="line"/>
      <point x="143" y="174" type="line"/>
      <point x="143" y="174" type="line"/>
      <point x="143" y="174" type="line"/>
      <point x="143" y="1605" type="line"/>
      <point x="36" y="1498" type="line"/>
      <point x="36" y="1605" type="line"/>
      <point x="-118" y="1451" type="line"/>
      <point x="-118" y="-152" type="line"/>
      <point x="-27" y="-152" type="line"/>
    </contour>
    <contour>
      <point x="32" y="1488" type="line"/>
      <point x="139" y="1595" type="line"/>
      <point x="139" y="174" type="line"/>
      <point x="134" y="151" type="line"/>
      <point x="134" y="151" type="line"/>
      <point x="134" y="151" type="line"/>
      <point x="106" y="16" type="line"/>
      <point x="88" y="-2" type="line"/>
      <point x="117" y="-2" type="line"/>
      <point x="-29" y="-148" type="line"/>
      <point x="-114" y="-148" type="line"/>
      <point x="-114" y="1449" type="line"/>
      <point x="32" y="1595" type="line"/>
    </contour>
  </outline>
</glyph>
<glyph name="Z" format="2">
  <advance width="7"/>
  <unicode hex="005A"/>
  <outline>
    <contour>
      <point x="1" y="-152" type="line"/>
      <point x="152" y="-1" type="line"/>
      <point x="152" y="258" type="line"/>
      <point x="133" y="258" type="line"/>
      <point x="45" y="170" type="line"/>
      <point x="45" y="241" type="line"/>
      <point x="149" y="1564" type="line"/>
      <point x="149" y="1602" type="line"/>
      <point x="29" y="1602" type="line"/>
      <point x="-122" y="1451" type="line"/>
      <point x="-122" y="1196" type="line"/>
      <point x="-104" y="1196" type="line"/>
      <point x="-33" y="1267" type="line"/>
      <point x="-125" y="94" type="line"/>
      <point x="-125" y="-152" type="line"/>
    </contour>
    <contour>
      <point x="-29" y="1277" type="line"/>
      <point x="-106" y="1200" type="line"/>
      <point x="-118" y="1200" type="line"/>
      <point x="-118" y="1449" type="line"/>
      <point x="31" y="1598" type="line"/>
      <point x="145" y="1598" type="line"/>
      <point x="145" y="1564" type="line"/>
      <point x="41" y="241" type="line"/>
      <point x="41" y="160" type="line"/>
      <point x="135" y="254" type="line"/>
      <point x="148" y="254" type="line"/>
      <point x="148" y="1" type="line"/>
      <point x="-1" y="-148" type="line"/>
      <point x="-121" y="-148" type="line"/>
      <point x="-121" y="94" type="line"/>
    </contour>
  </outline>
</glyph>
<glyph name="E.wide" format="2">
  <advance width="-36"/>
  <outline>
    <contour>
      <point x="110" y="-1" type="line"/>
      <point x="110" y="17" type="line"/>
      <point x="53" y="17" type="line"/>
      <point x="53" y="743" type="line"/>
      <point x="102" y="792" type="line"/>
      <point x="102" y="809" type="line"/>
      <point x="53" y="809" type="line"/>
      <point x="53" y="1529" type="line"/>
      <point x="109" y="1585" type="line"/>
      <point x="109" y="1602" type="line"/>
      <point x="33" y="1602" type="line"/>
      <point x="-118" y="1451" type="line"/>
      <point x="-118" y="-152" type="line"/>
      <point x="-41" y="-152" type="line"/>
    </contour>
    <contour>
      <point x="49" y="745" type="line"/>
      <point x="49" y="13" type="line"/>
      <point x="106" y="13" type="line"/>
      <point x="106" y="1" type="line"/>
      <point x="-43" y="-148" type="line"/>
      <point x="-114" y="-148" type="line"/>
      <point x="-114" y="1449" type="line"/>
      <point x="35" y="1598" type="line"/>
      <point x="105" y="1598" type="line"/>
      <point x="105" y="1587" type="line"/>
      <point x="49" y="1531" type="line"/>
      <point x="49" y="805" type="line"/>
      <point x="98" y="805" type="line"/>
      <point x="98" y="794" type="line"/>
    </contour>
  </outline>
</glyph>
<glyph name="G.wide" format="2">
  <outline>
    <contour>
      <point x="5" y="-152" type="line"/>
      <point x="156" y="-1" type="line"/>
      <point x="156" y="806" type="line"/>
      <point x="82" y="806" type="line"/>
      <point x="47" y="771" type="line"/>
      <point x="47" y="1288" type="line"/>
      <point x="80" y="1509" type="line"/>
      <point x="155" y="1584" type="line"/>
      <point x="155" y="1602" type="line"/>
      <point x="73" y="1602" type="line"/>
      <point x="-78" y="1451" type="line"/>
      <point x="-123" y="1139" type="line"/>
      <point x="-123" y="-152" type="line"/>
    </contour>
    <contour>
      <point x="76" y="1511" type="line"/>
      <point x="43" y="1288" type="line"/>
      <point x="43" y="761" type="line"/>
      <point x="84" y="802" type="line"/>
      <point x="152" y="802" type="line"/>
      <point x="152" y="1" type="line"/>
      <point x="3" y="-148" type="line"/>
      <point x="-119" y="-148" type="line"/>
      <point x="-119" y="1139" type="line"/>
      <point x="-74" y="1449" type="line"/>
      <point x="75" y="1598" type="line"/>
      <point x="151" y="1598" type="line"/>
      <point x="151" y="1586" type="line"/>
    </contour>
  </outline>
</glyph>
<glyph name="M.narrow" format="2">
  <advance width="124"/>
  <outline>
    <contour>
      <point x="116" y="-152" type="line"/>
      <point x="267" y="-1" type="line"/>
      <point x="267" y="1602" type="line"/>
      <point x="69" y="1602" type="line"/>
      <point x="-82" y="1451" type="line"/>
      <point x="-118" y="1279" type="line"/>
      <point x="-118" y="-152" type="line"/>
      <point x="-98" y="-152" type="line"/>
      <point x="-8" y="-62" type="line"/>
      <point x="-8" y="-152" type="line"/>
      <point x="12" y="-152" type="line"/>
      <point x="97" y="-67" type="line"/>
      <point x="97" y="-152" type="line"/>
    </contour>
    <contour>
      <point x="101" y="-57" type="line"/>
      <point x="10" y="-148" type="line"/>
      <point x="-4" y="-148" type="line"/>
      <point x="-4" y="-52" type="line"/>
      <point x="-100" y="-148" type="line"/>
      <point x="-114" y="-148" type="line"/>
      <point x="-114" y="1279" type="line"/>
      <point x="-78" y="1449" type="line"/>
      <point x="71" y="1598" type="line"/>
      <point x="263" y="1598" type="line"/>
      <point x="263" y="1" type="line"/>
      <point x="114" y="-148" type="line"/>
      <point x="101" y="-148" type="line"/>
    </contour>
  </outline>
</glyph>
<glyph name="U.alt" format="2">
  <advance width="18"/>
  <outline>
    <contour>
      <point x="4" y="-152" type="line"/>
      <point x="155" y="-1" type="line"/>
      <point x="155" y="1602" type="line"/>
      <point x="136" y="1602" type="line"/>
      <point x="48" y="1514" type="line"/>
      <point x="48" y="1602" type="line"/>
      <point x="28" y="1602" type="line"/>
      <point x="-123" y="1451" type="line"/>
      <point x="-123" y="-152" type="line"/>
    </contour>
    <contour>
      <point x="44" y="1504" type="line"/>
      <point x="138" y="1598" type="line"/>
      <point x="151" y="1598" type="line"/>
      <point x="151" y="1" type="line"/>
      <point x="2" y="-148" type="line"/>
      <point x="-119" y="-148" type="line"/>
      <point x="-119" y="1449" type="line"/>
      <point x="30" y="1598" type="line"/>
      <point x="44" y="1598" type="line"/>
    </contour>
  </outline>
</glyph>
<glyph name="Y.wide" format="2">
  <advance width="18"/>
  <outline>
    <contour>
      <point x="5" y="-152" type="line"/>
      <point x="156" y="-1" type="line"/>
      <point x="156" y="1602" type="line"/>
      <point x="137" y="1602" type="line"/>
      <point x="49" y="1514" type="line"/>
      <point x="49" y="1602" type="line"/>
      <point x="29" y="1602" type="line"/>
      <point x="-122" y="1451" type="line"/>
      <point x="-122" y="640" type="line"/>
      <point x="-14" y="640" type="line"/>
      <point x="-14" y="-23" type="line"/>
      <point x="-125" y="-134" type="line"/>
      <point x="-125" y="-152" type="line"/>
    </contour>
    <contour>
      <point x="-10" y="-25" type="line"/>
      <point x="-10" y="644" type="line"/>
      <point x="-118" y="644" type="line"/>
      <point x="-118" y="1449" type="line"/>
      <point x="31" y="1598" type="line"/>
      <point x="45" y="1598" type="line"/>
      <point x="45" y="1504" type="line"/>
      <point x="139" y="1598" type="line"/>
      <point x="152" y="1598" type="line"/>
      <point x="152" y="1" type="line"/>
      <point x="3" y="-148" type="line"/>
      <point x="-121" y="-148" type="line"/>
      <point x="-121" y="-136" type="line"/>
    </contour>
  </outline>
</glyph>
<glyph name="Z.wide" format="2">
  <advance width="9"/>
  <outline>
    <contour>
      <point x="154" y="-1" type="line"/>
      <point x="154" y="17" type="line"/>
      <point x="45" y="17" type="line"/>
      <point x="45" y="241" type="line"/>
      <point x="150" y="1472" type="line"/>
      <point x="150" y="1602" type="line"/>
      <point x="29" y="1602" type="line"/>
      <point x="-122" y="1451" type="line"/>
      <point x="-122" y="1433" type="line"/>
      <point x="-20" y="1433" type="line"/>
      <point x="-20" y="1321" type="line"/>
      <point x="-125" y="94" type="line"/>
      <point x="-125" y="-152" type="line"/>
      <point x="3" y="-152" type="line"/>
    </contour>
    <contour>
      <point x="41" y="241" type="line"/>
      <point x="41" y="13" type="line"/>
      <point x="150" y="13" type="line"/>
      <point x="150" y="1" type="line"/>
      <point x="1" y="-148" type="line"/>
      <point x="-121" y="-148" type="line"/>
      <point x="-121" y="94" type="line"/>
      <point x="-16" y="1321" type="line"/>
      <point x="-16" y="1437" type="line"/>
      <point x="-118" y="1437" type="line"/>
      <point x="-118" y="1449" type="line"/>
      <point x="31" y="1598" type="line"/>
      <point x="146" y="1598" type="line"/>
      <point x="146" y="1472" type="line"/>
    </contour>
  </outline>
</glyph>
<glyph name="five.wide" format="2">
  <advance width="2"/>
  <outline>
    <contour>
      <point x="-4" y="-152" type="line"/>
      <point x="147" y="-1" type="line"/>
      <point x="147" y="810" type="line"/>
      <point x="45" y="810" type="line"/>
      <point x="45" y="1482" type="line"/>
      <point x="147" y="1584" type="line"/>
      <point x="147" y="1602" type="line"/>
      <point x="26" y="1602" type="line"/>
      <point x="-125" y="1451" type="line"/>
      <point x="-125" y="640" type="line"/>
      <point x="-24" y="640" type="line"/>
      <point x="-24" y="-35" type="line"/>
      <point x="-123" y="-134" type="line"/>
      <point x="-123" y="-152" type="line"/>
    </contour>
    <contour>
      <point x="-20" y="-37" type="line"/>
      <point x="-20" y="644" type="line"/>
      <point x="-121" y="644" type="line"/>
      <point x="-121" y="1449" type="line"/>
      <point x="28" y="1598" type="line"/>
      <point x="143" y="1598" type="line"/>
      <point x="143" y="1586" type="line"/>
      <point x="41" y="1484" type="line"/>
      <point x="41" y="806" type="line"/>
      <point x="143" y="806" type="line"/>
      <point x="143" y="1" type="line"/>
      <point x="-6" y="-148" type="line"/>
      <point x="-119" y="-148" type="line"/>
      <point x="-119" y="-136" type="line"/>
    </contour>
  </outline>
</glyph>
<glyph name="nine.wide" format="2">
  <advance width="-16"/>
  <outline>
    <contour>
      <point x="-9" y="-152" type="line"/>
      <point x="142" y="-1" type="line"/>
      <point x="142" y="1602" type="line"/>
      <point x="14" y="1602" type="line"/>
      <point x="-137" y="1451" type="line"/>
      <point x="-137" y="640" type="line"/>
      <point x="-29" y="640" type="line"/>
      <point x="-29" y="-26" type="line"/>
      <point x="-137" y="-134" type="line"/>
      <point x="-137" y="-152" type="line"/>
    </contour>
    <contour>
      <point x="-25" y="-28" type="line"/>
      <point x="-25" y="644" type="line"/>
      <point x="-133" y="644" type="line"/>
      <point x="-133" y="1449" type="line"/>
      <point x="16" y="1598" type="line"/>
      <point x="138" y="1598" type="line"/>
      <point x="138" y="1" type="line"/>
      <point x="-11" y="-148" type="line"/>
      <point x="-133" y="-148" type="line"/>
      <point x="-133" y="-136" type="line"/>
    </contour>
  </outline>
</glyph>
<glyph name="one.narrow" format="2">
  <advance width="-36"/>
  <outline>
    <contour>
      <point x="102" y="1602" type="line"/>
      <point x="26" y="1602" type="line"/>
      <point x="-125" y="1451" type="line"/>
      <point x="-125" y="1433" type="line"/>
      <point x="-69" y="1433" type="line"/>
      <point x="-69" y="-152" type="line"/>
      <point x="-49" y="-152" type="line"/>
      <point x="102" y="-1" type="line"/>
    </contour>
    <contour>
      <point x="-65" y="1437" type="line"/>
      <point x="-121" y="1437" type="line"/>
      <point x="-121" y="1449" type="line"/>
      <point x="28" y="1598" type="line"/>
      <point x="98" y="1598" type="line"/>
      <point x="98" y="1" type="line"/>
      <point x="-51" y="-148" type="line"/>
      <point x="-65" y="-148" type="line"/>
    </contour>
  </outline>
</glyph>
<glyph name="seven.alt" format="2">
  <advance width="16"/>
  <outline>
    <contour>
      <point x="-16" y="-152" type="line"/>
      <point x="3" y="-152" type="line"/>
      <point x="157" y="2" type="line"/>
      <point x="138" y="2" type="line"/>
      <point x="138" y="1587" type="line"/>
      <point x="64" y="1587" type="line"/>
      <point x="50" y="1573" type="line"/>
      <point x="50" y="1605" type="line"/>
      <point x="-104" y="1451" type="line"/>
      <point x="-104" y="870" type="line"/>
      <point x="-84" y="870" type="line"/>
      <point x="-16" y="938" type="line"/>
    </contour>
    <contour>
      <point x="134" y="-2" type="line"/>
      <point x="147" y="-2" type="line"/>
      <point x="1" y="-148" type="line"/>
      <point x="-12" y="-148" type="line"/>
      <point x="-12" y="948" type="line"/>
      <point x="-86" y="874" type="line"/>
      <point x="-100" y="874" type="line"/>
      <point x="-100" y="1449" type="line"/>
      <point x="46" y="1595" type="line"/>
      <point x="46" y="1563" type="line"/>
      <point x="66" y="1583" type="line"/>
      <point x="134" y="1583" type="line"/>
    </contour>
  </outline>
</glyph>
<glyph name="six.wide" format="2">
  <advance width="-16"/>
  <outline>
    <contour>
      <point x="-10" y="-152" type="line"/>
      <point x="141" y="-1" type="line"/>
      <point x="141" y="807" type="line"/>
      <point x="33" y="807" type="line"/>
      <point x="33" y="1427" type="line"/>
      <point x="48" y="1491" type="line"/>
      <point x="141" y="1584" type="line"/>
      <point x="141" y="1602" type="line"/>
      <point x="51" y="1602" type="line"/>
      <point x="-100" y="1451" type="line"/>
      <point x="-138" y="1278" type="line"/>
      <point x="-138" y="-152" type="line"/>
    </contour>
    <contour>
      <point x="44" y="1493" type="line"/>
      <point x="29" y="1427" type="line"/>
      <point x="29" y="803" type="line"/>
      <point x="137" y="803" type="line"/>
      <point x="137" y="1" type="line"/>
      <point x="-12" y="-148" type="line"/>
      <point x="-134" y="-148" type="line"/>
      <point x="-134" y="1278" type="line"/>
      <point x="-96" y="1449" type="line"/>
      <point x="53" y="1598" type="line"/>
      <point x="137" y="1598" type="line"/>
      <point x="137" y="1586" type="line"/>
    </contour>
  </outline>
</glyph>
<glyph name="three.wide" format="2">
  <advance width="16"/>
  <outline>
    <contour>
      <point x="3" y="-152" type="line"/>
      <point x="154" y="-1" type="line"/>
      <point x="154" y="817" type="line"/>
      <point x="137" y="817" type="line"/>
      <point x="137" y="1602" type="line"/>
      <point x="41" y="1602" type="line"/>
      <point x="-110" y="1451" type="line"/>
      <point x="-110" y="1433" type="line"/>
      <point x="-34" y="1433" type="line"/>
      <point x="-34" y="745" type="line"/>
      <point x="-112" y="667" type="line"/>
      <point x="-112" y="648" type="line"/>
      <point x="-17" y="648" type="line"/>
      <point x="-17" y="-27" type="line"/>
      <point x="-124" y="-134" type="line"/>
      <point x="-124" y="-152" type="line"/>
    </contour>
    <contour>
      <point x="-13" y="-29" type="line"/>
      <point x="-13" y="652" type="line"/>
      <point x="-108" y="652" type="line"/>
      <point x="-108" y="665" type="line"/>
      <point x="-30" y="743" type="line"/>
      <point x="-30" y="1437" type="line"/>
      <point x="-106" y="1437" type="line"/>
      <point x="-106" y="1449" type="line"/>
      <point x="43" y="1598" type="line"/>
      <point x="133" y="1598" type="line"/>
      <point x="133" y="813" type="line"/>
      <point x="150" y="813" type="line"/>
      <point x="150" y="1" type="line"/>
      <point x="1" y="-148" type="line"/>
      <point x="-120" y="-148" type="line"/>
      <point x="-120" y="-136" type="line"/>
    </contour>
  </outline>
</glyph>
<glyph name="two.wide" format="2">
  <advance width="18"/>
  <outline>
    <contour>
      <point x="156" y="-1" type="line"/>
      <point x="156" y="17" type="line"/>
      <point x="45" y="17" type="line"/>
      <point x="45" y="687" type="line"/>
      <point x="149" y="791" type="line"/>
      <point x="149" y="1602" type="line"/>
      <point x="29" y="1602" type="line"/>
      <point x="-122" y="1451" type="line"/>
      <point x="-122" y="1433" type="line"/>
      <point x="-21" y="1433" type="line"/>
      <point x="-21" y="762" type="line"/>
      <point x="-125" y="658" type="line"/>
      <point x="-125" y="-152" type="line"/>
      <point x="5" y="-152" type="line"/>
    </contour>
    <contour>
      <point x="41" y="689" type="line"/>
      <point x="41" y="13" type="line"/>
      <point x="152" y="13" type="line"/>
      <point x="152" y="1" type="line"/>
      <point x="3" y="-148" type="line"/>
      <point x="-121" y="-148" type="line"/>
      <point x="-121" y="656" type="line"/>
      <point x="-17" y="760" type="line"/>
      <point x="-17" y="1437" type="line"/>
      <point x="-118" y="1437" type="line"/>
      <point x="-118" y="1449" type="line"/>
      <point x="31" y="1598" type="line"/>
      <point x="145" y="1598" type="line"/>
      <point x="145" y="793" type="line"/>
    </contour>
  </outline>
</glyph>
